# xmcd CD database file
#
# Track frame offsets:
#	150
#	11119
#	29467
#	48349
#	69081
#	85114
#	104385
#	118787
#
# Disc length: 1843 seconds
#
# Revision: 0
# Processed by: cddbd v1.5.2PL0 Copyright (c) Steve Scherf et al.
# Submitted via: CDex 1.51
#
DISCID=5f073108
DTITLE=Tom Breiding - The Next Heartache
DYEAR=1997
DGENRE=Country
TTITLE0=The Next Heartache
TTITLE1=A Picture Of Him
TTITLE2=One Single Night
TTITLE3=Finding Nowhere To Go
TTITLE4=It Comes And Goes
TTITLE5=Fathers, Sons And Parades
TTITLE6=Farther From The Truth
TTITLE7=What Do You Say?
EXTD=YEAR: 1997
EXTT0=
EXTT1=
EXTT2=
EXTT3=
EXTT4=
EXTT5=
EXTT6=
EXTT7=
PLAYORDER=
